<?xml version="1.0" standalone="no"?>
<!DOCTYPE svg PUBLIC "-//W3C//DTD SVG 20010904//EN"
 "http://www.w3.org/TR/2001/REC-SVG-20010904/DTD/svg10.dtd">
<svg version="1.0" xmlns="http://www.w3.org/2000/svg"
 width="234.000000pt" height="232.000000pt" viewBox="0 0 234.000000 232.000000"
 preserveAspectRatio="xMidYMid meet">

<g transform="translate(0.000000,232.000000) scale(0.100000,-0.100000)"
fill="#000000" stroke="none">
<path d="M1 1163 l-1 -1163 1170 0 1170 0 -2 1163 c-1 639 -3 1143 -5 1119 -4
-36 -7 -42 -19 -31 -17 14 -18 41 -2 57 9 9 -62 12 -325 12 -263 -1 -336 -3
-331 -13 5 -9 3 -9 -7 1 -19 18 -38 15 -35 -5 2 -10 13 -19 24 -21 16 -2 22
-10 22 -28 0 -28 -15 -32 -29 -6 -6 9 -11 13 -11 8 0 -4 -8 2 -19 15 -10 13
-17 29 -14 35 3 8 -25 12 -98 13 l-102 2 67 -62 c36 -34 65 -63 63 -65 -8 -8
-122 33 -120 43 1 5 -8 8 -20 6 -13 -3 -56 13 -103 36 -86 43 -138 52 -148 25
-3 -8 -2 -13 3 -10 5 3 15 -4 24 -17 8 -12 33 -42 56 -67 44 -48 55 -75 19
-44 -13 10 -10 4 6 -14 l30 -32 -63 0 c-71 0 -149 -16 -172 -36 -8 -8 -21 -14
-28 -14 -9 0 -9 -3 1 -13 17 -17 130 -17 116 0 -16 20 29 36 76 28 23 -4 53
-8 68 -8 15 -1 31 -6 35 -12 5 -6 4 -7 -2 -2 -5 4 -13 7 -18 7 -5 0 9 -18 32
-40 37 -36 51 -60 35 -60 -4 0 -24 15 -44 34 -21 19 -49 39 -62 46 -13 6 -4
-7 23 -32 26 -24 49 -51 53 -62 5 -13 10 -15 19 -8 13 11 38 2 40 -14 1 -5 6
-8 13 -6 7 1 10 -26 10 -85 -1 -71 3 -97 21 -134 29 -61 49 -76 81 -56 21 14
32 -3 28 -39 -4 -28 -2 -33 8 -25 9 7 16 7 26 -2 10 -10 12 -8 6 8 -7 19 -6
19 11 3 16 -17 16 -18 -2 -31 -20 -15 -15 -49 7 -45 6 2 16 -10 21 -27 5 -16
12 -37 15 -45 9 -28 0 -64 -21 -82 -28 -25 -35 -23 -42 16 -6 32 -8 33 -24 18
-10 -10 -14 -21 -9 -26 4 -6 8 -19 7 -30 0 -12 -3 -15 -6 -8 -2 7 -13 17 -23
22 -18 10 -18 9 -3 -27 8 -21 20 -41 26 -44 6 -5 2 -18 -12 -37 -11 -17 -21
-45 -21 -62 0 -34 -5 -35 -53 -15 -16 7 -16 5 -6 -19 15 -32 17 -32 63 -1 43
29 58 31 96 8 50 -29 81 -109 94 -243 6 -63 2 -73 -39 -88 -29 -11 -29 -11 8
-6 31 5 37 3 37 -11 0 -12 -6 -16 -19 -12 -15 3 -18 0 -14 -17 4 -17 3 -18 -6
-6 -9 13 -11 12 -11 -5 0 -18 -1 -18 -16 3 -11 15 -20 20 -27 14 -7 -5 -21 -6
-32 -2 -20 8 -19 8 2 16 l22 9 -25 12 c-22 10 -25 10 -20 -3 10 -25 -11 -14
-59 34 -29 29 -33 28 -77 -12 -30 -27 -38 -41 -38 -69 0 -39 -14 -54 -58 -63
-18 -4 -29 -10 -27 -14 3 -5 -5 -6 -16 -3 -14 4 -25 0 -31 -11 -12 -21 -24
-20 -59 5 -16 11 -29 17 -29 12 0 -4 21 -39 45 -78 40 -62 43 -71 29 -82 -9
-7 -14 -19 -11 -27 4 -9 -5 -28 -18 -45 -28 -33 -31 -43 -11 -35 23 9 27 -12
9 -45 -19 -33 -53 -42 -53 -14 0 14 -4 13 -25 -7 -13 -12 -22 -28 -18 -33 4
-6 0 -8 -10 -4 -11 4 -14 2 -10 -9 3 -9 -2 -14 -16 -14 -12 0 -21 -4 -21 -10
0 -18 24 -11 52 14 30 29 47 22 21 -7 -18 -19 -17 -20 5 -8 36 19 36 8 -2 -39
-22 -28 -32 -49 -28 -63 3 -12 1 -18 -5 -14 -6 4 -8 -3 -5 -18 5 -27 -6 -32
-27 -12 -11 10 -13 9 -8 -5 6 -17 -11 -41 -35 -51 -10 -4 -8 -10 5 -20 12 -10
14 -17 8 -22 -8 -4 -8 -13 0 -28 12 -22 12 -22 -8 -2 -14 14 -16 22 -9 27 7 5
1 16 -16 31 -15 13 -25 27 -21 31 3 3 1 6 -5 6 -7 0 -12 8 -12 19 0 10 -7 37
-15 60 -9 28 -11 41 -3 41 6 0 3 9 -6 19 -14 15 -15 24 -7 40 13 24 14 51 2
51 -5 0 -13 -9 -16 -20 -3 -11 -12 -20 -20 -20 -7 0 -16 -6 -19 -12 -3 -9 -11
-6 -25 11 -25 27 -26 42 -7 79 8 15 17 50 21 77 4 28 16 66 25 85 13 25 15 41
9 53 -6 9 -7 17 -3 17 4 0 -2 8 -12 18 -49 44 -85 122 -51 109 8 -3 14 1 14 9
0 9 -7 12 -19 8 -25 -7 -23 13 3 26 11 6 18 17 16 23 -5 16 15 35 47 43 14 3
26 9 26 13 0 4 18 15 40 25 33 14 40 22 34 38 -5 18 -4 19 16 8 16 -9 25 -9
33 -1 14 14 25 14 30 -2 2 -6 3 -4 2 5 -3 14 1 16 16 8 14 -8 17 -7 13 3 -9
23 25 48 60 45 24 -2 33 2 40 18 8 17 18 21 48 20 21 0 38 -4 38 -7 0 -11 63
-45 93 -51 36 -7 25 9 -12 17 -42 9 -81 49 -81 82 0 22 3 25 10 13 8 -13 11
-12 24 5 9 11 13 26 11 32 -5 14 31 37 45 28 5 -3 11 -1 15 5 3 5 1 10 -4 10
-18 0 -12 39 9 60 12 12 26 18 32 14 8 -5 9 0 5 17 -4 13 -7 33 -7 44 -1 13
-6 7 -13 -15 -7 -19 -16 -33 -22 -30 -5 3 -9 9 -7 14 2 6 0 21 -3 35 l-7 26
-9 -23 c-8 -22 -10 -22 -45 -7 -21 8 -43 20 -50 26 -9 7 -30 -2 -75 -31 -34
-22 -70 -40 -80 -40 -26 0 -49 11 -49 24 0 6 -21 26 -45 45 -31 23 -45 41 -45
57 0 12 -5 26 -10 29 -7 4 -6 13 1 26 8 15 14 18 23 9 11 -8 15 -3 20 21 3 17
6 38 6 45 0 22 -51 62 -87 69 -18 3 -33 10 -33 15 0 12 7 12 47 1 26 -7 31 -7
26 5 -3 8 -16 14 -28 14 -13 0 -27 5 -31 11 -8 14 16 89 29 89 6 0 3 8 -5 18
-38 44 -78 155 -59 164 13 7 42 69 36 78 -4 6 1 22 9 35 23 35 15 31 -49 -20
-37 -31 -55 -40 -55 -30 0 10 -5 13 -12 9 -7 -5 -9 -2 -5 8 4 12 -4 20 -26 29
-18 6 -37 17 -42 23 -6 6 -28 27 -48 46 -31 29 -39 32 -47 20 -8 -13 -10 -13
-10 2 0 9 12 26 28 37 l27 21 -44 41 c-34 33 -45 39 -52 28 -8 -12 -10 -12
-18 0 -6 9 -11 10 -15 2 -9 -14 -27 -4 -21 12 7 19 -35 43 -85 50 -25 3 -37 3
-27 0 11 -3 16 -11 13 -21 -5 -16 34 -64 92 -116 19 -17 22 -17 37 -2 11 11
12 16 4 16 -7 0 -9 3 -5 7 4 5 14 -1 22 -11 8 -11 14 -14 14 -8 0 7 7 12 16
12 13 0 14 -3 4 -15 -6 -8 -8 -20 -4 -26 5 -9 1 -10 -14 -7 -12 4 -22 2 -22
-2 0 -19 46 -61 68 -63 12 -1 22 -6 22 -12 0 -12 52 -65 64 -65 4 0 4 6 0 13
-4 6 6 0 22 -15 23 -22 26 -30 16 -40 -11 -11 -12 -10 -7 3 3 9 -1 22 -10 29
-24 20 -20 -13 6 -41 11 -13 18 -19 15 -13 -3 7 0 17 8 23 26 22 24 -12 -5
-72 -15 -32 -29 -60 -31 -63 -7 -6 -103 23 -164 50 -38 17 -65 37 -75 55 -10
17 -25 28 -35 28 -11 -1 -20 6 -22 18 -2 11 -16 36 -31 55 -16 19 -31 45 -35
58 -9 27 -26 20 -19 -8 6 -23 -15 -28 -35 -8 -10 10 -17 10 -33 -1 -15 -8 -25
-9 -32 -2 -6 6 -17 5 -32 -5 -16 -10 -25 -12 -30 -4 -3 6 -11 8 -16 4 -5 -3
-16 -1 -23 5 -9 7 -28 5 -67 -10 -66 -25 -65 -24 -48 -46 12 -16 12 -17 -2 -6
-9 7 -19 10 -22 7 -4 -4 -5 7 -4 23 2 24 6 29 21 25 15 -4 17 -1 11 19 -4 13
-14 32 -23 42 -14 15 -13 17 4 17 11 0 29 7 41 15 22 15 27 5 10 -22 -8 -13 0
-20 23 -18 8 1 26 -3 40 -8 13 -4 21 -5 17 -1 -3 4 1 13 11 21 15 13 14 13 -6
3 -23 -11 -23 -11 -6 15 10 15 23 24 31 21 9 -4 11 -1 7 6 -5 8 -2 9 10 5 9
-4 15 -3 12 2 -3 4 1 17 9 27 8 10 14 28 14 39 0 18 -1 18 -9 -2 -10 -23 -30
-32 -30 -12 0 5 -4 8 -9 4 -20 -12 -29 28 -13 53 14 21 14 24 2 20 -8 -3 -24
2 -34 11 -14 11 -17 12 -11 2 6 -11 2 -10 -16 2 -25 18 -69 23 -69 9 0 -5 9
-17 20 -27 11 -10 18 -26 15 -39 -2 -11 -4 -24 -4 -28 -1 -5 -5 -8 -11 -8 -5
0 -7 6 -4 13 4 12 -24 46 -33 40 -1 -2 -3 -1 -3 2 0 3 0 10 0 16 0 5 5 7 12 3
7 -4 8 -3 4 4 -4 6 -13 9 -20 6 -8 -3 -16 2 -19 13 -3 10 -5 -505 -6 -1144z
m112 1040 c-11 -8 -12 -13 -4 -13 7 0 10 -4 7 -9 -3 -5 0 -14 8 -20 10 -8 16
-8 25 3 9 11 9 16 0 22 -8 5 -9 3 -4 -6 5 -8 4 -11 -3 -6 -6 4 -9 13 -6 21 5
11 10 11 26 -5 l21 -19 -24 -25 c-23 -25 -46 -36 -34 -17 3 5 -5 17 -17 25
-16 12 -25 13 -35 4 -11 -8 -12 -7 -7 6 3 9 11 16 17 16 6 0 8 3 4 6 -3 3 -1
19 5 35 9 28 11 28 24 12 11 -15 11 -20 -3 -30z m1757 7 c0 -5 -5 -10 -11 -10
-5 0 -7 5 -4 10 3 6 8 10 11 10 2 0 4 -4 4 -10z m-1830 -40 c0 -5 -8 -10 -17
-10 -15 0 -16 2 -3 10 19 12 20 12 20 0z m1271 -57 c13 -16 12 -17 -3 -4 -17
13 -22 21 -14 21 2 0 10 -8 17 -17z m-985 -78 c8 -8 21 -18 29 -23 8 -4 16
-16 18 -27 2 -11 9 -33 15 -48 15 -36 15 -47 0 -48 -7 0 -4 -4 7 -9 11 -5 14
-9 7 -9 -8 -1 40 -54 105 -120 65 -65 123 -126 128 -135 6 -9 24 -17 40 -18
17 -1 33 -7 37 -13 11 -15 10 -55 -2 -55 -5 0 -7 -7 -4 -15 5 -12 2 -14 -12
-8 -17 6 -18 5 -4 -12 14 -17 13 -18 -2 -12 -10 3 -18 2 -18 -3 0 -5 -10 -18
-22 -30 -12 -11 -16 -20 -10 -20 7 0 12 -5 12 -10 0 -7 -7 -7 -21 1 l-21 11
24 25 23 26 -32 -18 c-34 -20 -32 -30 7 -62 13 -11 13 -12 -1 -13 -8 0 -26 10
-39 22 -13 12 -30 23 -37 24 -15 3 -112 72 -154 111 -14 13 -30 23 -35 22 -22
-4 -36 2 -31 14 3 7 -1 21 -9 31 -7 11 -11 23 -7 29 3 6 1 7 -5 3 -16 -10 -27
15 -11 26 10 7 8 8 -9 5 -25 -6 -56 18 -46 35 4 6 2 8 -3 5 -17 -11 -33 18
-29 51 5 42 -12 53 -68 46 -40 -6 -45 -9 -34 -23 11 -13 9 -13 -14 2 -15 9
-36 17 -48 17 -11 0 -20 6 -21 13 0 6 -4 3 -9 -8 -7 -14 -9 -2 -8 43 1 69 14
73 20 5 1 -7 4 -10 7 -8 3 2 23 -5 43 -15 37 -18 37 -18 27 1 -5 10 -15 19
-20 19 -6 0 -9 7 -6 14 4 9 -2 17 -14 21 -45 15 -61 45 -50 93 1 2 11 -4 22
-12 12 -8 28 -12 35 -9 8 3 14 0 14 -7 0 -6 5 -8 10 -5 6 3 10 0 10 -7 0 -16
47 -61 67 -64 18 -3 53 -33 53 -46 0 -5 -4 -6 -10 -3 -5 3 -10 0 -10 -8 0 -7
11 -19 25 -25 14 -6 25 -16 25 -22 0 -5 7 -10 16 -10 11 0 14 5 9 18 -4 9 -8
22 -9 28 -1 7 -8 19 -15 28 -12 14 -11 16 5 10 16 -6 15 -3 -5 19 -26 28 -19
32 29 17 14 -4 18 -9 10 -9 -12 -1 -11 -5 4 -16 25 -19 33 -19 33 0 0 8 -5 12
-11 9 -6 -3 -3 1 7 9 17 14 17 16 -4 31 -16 11 -19 19 -12 28 13 16 14 68 1
68 -5 0 -7 4 -3 9 3 6 -3 14 -12 20 -11 6 -13 11 -5 11 7 0 20 -7 28 -15z
m-73 -2 c3 -5 2 -16 -2 -25 -5 -15 -8 -15 -26 -2 -17 13 -18 16 -5 24 18 12
27 12 33 3z m-83 -13 c0 -5 -2 -10 -4 -10 -3 0 -8 5 -11 10 -3 6 -1 10 4 10 6
0 11 -4 11 -10z m1723 -4 c3 3 19 3 36 -1 22 -5 31 -13 36 -36 4 -16 18 -38
33 -49 20 -16 23 -23 13 -29 -10 -6 -9 -10 3 -14 23 -9 20 -30 -3 -24 -20 5
-38 -19 -19 -25 6 -2 12 -24 14 -48 7 -74 10 -88 23 -104 30 -36 11 -176 -25
-190 -8 -3 -12 -10 -9 -16 3 -5 1 -10 -5 -10 -6 0 -8 -4 -5 -10 3 -5 -1 -10
-9 -10 -8 0 -18 5 -21 10 -4 6 -11 8 -16 4 -6 -3 -3 -12 8 -21 12 -10 8 -9
-11 2 -22 13 -30 14 -36 4 -7 -10 -14 -9 -34 5 -15 9 -24 21 -21 25 2 5 -2 14
-10 21 -8 7 -15 19 -15 27 0 11 -4 12 -22 2 -21 -11 -22 -11 -10 4 9 10 10 21
5 32 -9 15 -11 15 -22 1 -20 -24 -29 -20 -45 19 -17 39 -35 45 -43 15 -3 -11
-11 -20 -18 -20 -7 0 -15 -6 -18 -12 -3 -9 -15 -3 -36 16 -33 32 -40 56 -16
56 8 0 15 9 15 20 0 23 10 26 29 8 10 -11 11 -10 7 2 -10 29 -14 80 -6 75 4
-2 13 -18 19 -33 14 -33 71 -67 71 -43 0 5 -10 11 -23 15 -18 4 -27 20 -44 77
-21 69 -20 95 8 119 3 3 9 14 13 24 6 18 7 18 27 -2 21 -23 49 -29 49 -12 0 6
9 10 20 10 11 0 20 -4 20 -8 0 -5 6 -9 13 -10 6 -1 27 -5 45 -8 25 -5 32 -3
32 10 0 9 6 13 14 10 8 -3 17 0 21 5 3 6 11 9 16 6 19 -12 8 8 -23 41 -18 19
-33 39 -33 44 0 5 -9 16 -20 25 -20 16 -20 16 1 6 12 -6 24 -8 27 -5z m-1713
-62 c0 -8 5 -14 11 -14 5 0 7 -4 4 -10 -10 -16 -38 -12 -32 5 4 8 1 17 -5 21
-7 5 -8 2 -3 -7 8 -12 6 -12 -8 0 -9 7 -15 17 -12 21 8 13 45 -1 45 -16z
m1553 -7 c3 -8 -1 -14 -8 -14 -7 0 -11 6 -8 14 3 7 6 13 8 13 2 0 5 -6 8 -13z
m-1439 -12 c3 -8 1 -15 -4 -15 -6 0 -10 7 -10 15 0 8 2 15 4 15 2 0 6 -7 10
-15z m1466 -19 c0 -2 -9 -6 -20 -9 -11 -3 -18 -1 -14 4 5 9 34 13 34 5z
m-1594 -130 c3 -8 12 -12 20 -9 8 3 14 -1 14 -11 0 -9 -3 -16 -7 -16 -10 1
-53 36 -53 44 0 12 21 5 26 -8z m-102 -52 c5 -14 4 -15 -9 -4 -17 14 -19 20
-6 20 5 0 12 -7 15 -16z m806 -49 c-6 -7 -8 -24 -5 -38 8 -30 -2 -70 -16 -62
-15 10 -10 90 8 131 17 39 17 39 21 11 2 -16 -2 -34 -8 -42z m748 16 c-15 -5
-19 4 -11 24 6 18 7 18 13 -1 4 -10 3 -21 -2 -23z m-1498 -76 c11 -3 20 -12
20 -18 0 -20 61 -88 72 -81 5 3 4 -3 -4 -15 -13 -21 -38 -29 -38 -12 0 5 -11
11 -25 14 -23 4 -24 3 -12 -12 8 -9 18 -27 22 -41 8 -25 7 -25 -13 -7 -11 10
-32 20 -47 21 l-26 3 20 -21 c23 -24 28 -44 9 -29 -7 5 -26 14 -41 21 -26 11
-27 11 -17 -8 6 -10 16 -18 23 -16 6 1 9 1 5 -1 -4 -2 -4 -11 -1 -20 5 -12 -2
-10 -24 7 l-31 22 -1 114 c-1 63 2 114 7 114 4 0 36 -32 70 -71 48 -55 62 -66
62 -49 0 13 -23 44 -55 77 -30 31 -55 52 -55 48 0 -4 -7 -2 -15 5 -8 7 -15 22
-15 34 0 18 7 14 45 -26 25 -26 54 -49 65 -53z m697 -22 c-2 -16 -4 -5 -4 22
0 28 2 40 4 28 2 -13 2 -35 0 -50z m-418 -67 c9 -11 9 -16 -1 -22 -7 -4 -10
-4 -6 1 4 4 3 14 -3 22 -6 7 -9 13 -6 13 2 0 10 -6 16 -14z m1229 -31 c-3 -3
-9 2 -12 12 -6 14 -5 15 5 6 7 -7 10 -15 7 -18z m-1384 -52 c8 -16 26 -41 40
-57 14 -16 26 -41 26 -55 -1 -25 -2 -24 -41 19 -55 61 -75 100 -57 111 17 12
16 13 32 -18z m710 -161 c0 -1 -22 6 -48 17 -41 18 -46 24 -46 51 l0 31 48
-48 c26 -26 47 -49 46 -51z m-30 -45 c8 -31 7 -47 -3 -47 -14 0 -43 50 -37 66
7 19 33 7 40 -19z m-410 -21 c-8 -22 -52 -32 -67 -16 -10 10 -7 11 13 7 19 -5
29 -1 38 13 8 13 9 20 1 20 -5 0 -7 5 -3 11 10 16 26 -15 18 -35z m1271 14 c3
-5 1 -10 -4 -10 -6 0 -11 5 -11 10 0 6 2 10 4 10 3 0 8 -4 11 -10z m-437 -18
c4 -12 -46 -37 -55 -28 -7 7 31 45 41 42 6 -1 12 -8 14 -14z m247 -2 c3 -5 1
-10 -4 -10 -6 0 -11 5 -11 10 0 6 2 10 4 10 3 0 8 -4 11 -10z m216 -17 c13
-16 12 -17 -3 -4 -17 13 -22 21 -14 21 2 0 10 -8 17 -17z m-829 -10 c37 -34 4
-74 -39 -46 -27 18 -21 37 9 27 17 -5 18 -3 9 15 -14 25 -4 27 21 4z m-114
-72 c3 -10 -2 -11 -19 -6 -39 12 -48 27 -15 23 16 -2 31 -9 34 -17z m-622 -1
c8 0 14 -5 14 -11 0 -5 -4 -8 -9 -5 -5 3 -11 -1 -15 -9 -7 -19 5 -19 47 -1
l33 13 1 -38 c1 -60 10 -85 32 -86 16 -1 18 2 11 26 -4 16 -3 35 2 45 7 13 5
21 -9 31 -17 13 -17 15 -1 31 16 17 18 16 26 -7 5 -13 8 -33 6 -44 -15 -72 1
-115 43 -115 35 0 0 -28 -42 -34 -5 0 -10 -14 -10 -31 0 -33 -15 -55 -39 -55
-23 0 -166 146 -166 169 0 11 -5 23 -10 26 -6 4 -8 10 -5 15 3 5 1 11 -5 15
-15 9 0 27 17 21 11 -5 14 -2 9 11 -5 15 -3 14 10 -2 16 -20 16 -20 9 2 -8 28
2 46 22 39 8 -3 21 -6 29 -6z m44 6 c0 -3 -4 -8 -10 -11 -5 -3 -10 -1 -10 4 0
6 5 11 10 11 6 0 10 -2 10 -4z m345 -6 c3 -6 -1 -7 -9 -4 -18 7 -21 14 -7 14
6 0 13 -4 16 -10z m-171 -9 c3 -4 -1 -17 -9 -27 -11 -15 -16 -16 -26 -7 -10
10 -9 15 1 28 14 17 26 19 34 6z m583 -44 c7 3 17 -7 23 -21 10 -27 4 -56 -12
-56 -5 0 -7 -4 -3 -9 3 -5 1 -12 -5 -16 -6 -3 -10 4 -10 17 0 13 -11 40 -25
61 l-26 37 23 -9 c13 -4 29 -6 35 -4z m68 -46 c3 -5 1 -12 -5 -16 -5 -3 -10 1
-10 9 0 18 6 21 15 7z m-938 -213 c-2 -24 -4 -7 -4 37 0 44 2 63 4 43 2 -21 2
-57 0 -80z m2153 -311 l0 -48 -86 86 -86 86 23 25 23 25 63 -63 c60 -59 63
-65 63 -111z m-2261 26 c2 -2 -10 -3 -27 -3 -28 0 -32 3 -32 27 l0 26 28 -24
c15 -13 29 -25 31 -26z m29 -29 c15 -9 35 -27 45 -40 18 -24 18 -24 -10 -25
-22 -2 -20 -3 12 -9 l40 -7 -40 -3 c-88 -7 -100 -7 -120 -1 -17 4 -16 6 10 12
l30 7 -27 1 c-33 1 -38 20 -5 22 l22 2 -22 4 c-13 2 -23 9 -23 14 0 5 10 10
23 10 l22 2 -22 4 c-13 2 -23 9 -23 14 0 15 60 10 88 -7z m87 -4 c3 -5 1 -10
-4 -10 -6 0 -11 5 -11 10 0 6 2 10 4 10 3 0 8 -4 11 -10z m-8 -52 c-3 -7 -5
-2 -5 12 0 14 2 19 5 13 2 -7 2 -19 0 -25z m-34 -55 c-23 -2 -64 -2 -90 0 -26
2 -8 3 42 3 50 0 71 -1 48 -3z m2184 -15 c-3 -8 -6 -5 -6 6 -1 11 2 17 5 13 3
-3 4 -12 1 -19z m-2168 -14 c2 -2 -30 -4 -72 -4 -45 0 -77 4 -77 10 0 9 138 3
149 -6z m2111 -9 c-12 -15 0 -22 14 -8 3 4 15 7 25 8 18 1 19 -8 21 -167 l1
-168 -124 0 c-117 0 -125 1 -146 23 -43 47 8 78 66 40 24 -16 26 -16 39 2 8
11 24 20 37 20 17 0 24 8 31 37 5 21 8 40 5 42 -2 3 -49 6 -104 7 -55 2 -103
8 -107 14 -5 6 -8 6 -8 -2 0 -8 -13 -13 -30 -13 -30 0 -37 11 -24 44 5 13 23
16 91 16 l85 0 -6 -25 c-5 -19 -3 -23 9 -19 8 3 12 10 9 15 -3 5 3 10 13 10
17 1 17 2 1 6 -16 4 -14 10 15 45 44 55 89 99 95 93 3 -2 -1 -11 -8 -20z
m-2170 -15 c11 -7 5 -10 -22 -10 -21 0 -38 5 -38 10 0 13 40 13 60 0z m-21
-24 c-12 -10 -60 -16 -54 -6 3 5 18 10 32 10 15 0 24 -2 22 -4z m1 -31 c0 -3
-10 -10 -22 -15 l-23 -9 22 0 c19 -1 56 -41 38 -41 -4 0 -3 -5 0 -10 4 -6 11
-5 20 4 29 28 85 -11 85 -59 0 -6 5 -16 12 -23 7 -7 11 -30 9 -52 -2 -31 1
-40 13 -40 9 0 16 -4 16 -10 0 -6 -47 -10 -120 -10 l-120 0 0 135 0 135 35 0
c19 0 35 -2 35 -5z m1844 -43 c3 -5 2 -18 -1 -30 -4 -17 -13 -22 -40 -22 -30
0 -34 3 -28 20 4 11 2 20 -4 20 -6 0 -11 -4 -11 -10 0 -5 -8 -10 -17 -11 -15
0 -15 -2 2 -9 14 -6 -1 -9 -47 -9 -38 -1 -68 3 -68 8 0 6 -12 6 -32 0 -23 -6
-34 -5 -40 4 -6 9 -8 9 -8 0 0 -8 -13 -13 -32 -12 -31 1 -32 1 -8 9 24 8 24 8
3 9 -25 1 -26 2 -17 25 5 14 30 16 174 16 93 0 171 -4 174 -8z m-316 -69 c-10
-2 -26 -2 -35 0 -10 3 -2 5 17 5 19 0 27 -2 18 -5z m182 3 c0 -2 -15 -6 -34
-8 -19 -2 -32 0 -30 4 5 8 64 12 64 4z m228 -3 c-10 -2 -26 -2 -35 0 -10 3 -2
5 17 5 19 0 27 -2 18 -5z m120 0 c-10 -2 -28 -2 -40 0 -13 2 -5 4 17 4 22 1
32 -1 23 -4z m52 3 c0 -2 -7 -6 -15 -10 -8 -3 -15 -1 -15 4 0 6 7 10 15 10 8
0 15 -2 15 -4z m40 0 c0 -2 -7 -7 -16 -10 -8 -3 -12 -2 -9 4 6 10 25 14 25 6z
m-1230 -146 c0 -5 -2 -10 -4 -10 -3 0 -8 5 -11 10 -3 6 -1 10 4 10 6 0 11 -4
11 -10z"/>
<path d="M230 1740 c0 -5 5 -10 11 -10 5 0 7 5 4 10 -3 6 -8 10 -11 10 -2 0
-4 -4 -4 -10z"/>
<path d="M341 1741 c-8 -5 -9 -11 -3 -15 5 -3 12 1 16 9 6 17 6 18 -13 6z"/>
<path d="M350 1691 c0 -5 7 -12 16 -15 14 -5 15 -4 4 9 -14 17 -20 19 -20 6z"/>
<path d="M410 1661 c0 -7 -4 -9 -10 -6 -6 4 -7 -1 -3 -11 6 -15 7 -15 15 1 6
9 7 19 4 22 -3 4 -6 1 -6 -6z"/>
<path d="M1735 1860 c-3 -5 -1 -10 4 -10 6 0 11 5 11 10 0 6 -2 10 -4 10 -3 0
-8 -4 -11 -10z"/>
<path d="M1739 1603 c-13 -16 -12 -17 4 -4 9 7 17 15 17 17 0 8 -8 3 -21 -13z"/>
<path d="M852 1630 c0 -14 2 -19 5 -12 2 6 2 18 0 25 -3 6 -5 1 -5 -13z"/>
<path d="M206 1105 c4 -8 10 -12 15 -9 11 6 2 24 -11 24 -5 0 -7 -7 -4 -15z"/>
<path d="M313 877 c-3 -5 -3 -10 -1 -12 7 -7 48 7 48 16 0 10 -40 7 -47 -4z"/>
<path d="M1620 220 l-25 -8 28 -1 c15 -1 27 4 27 9 0 6 -1 10 -2 9 -2 -1 -14
-5 -28 -9z"/>
<path d="M1773 217 c-4 -8 -15 -17 -23 -20 -10 -4 -8 -6 6 -6 12 -1 25 6 28
15 8 22 0 30 -11 11z"/>
<path d="M1880 204 c0 -8 5 -12 10 -9 6 3 10 10 10 16 0 5 -4 9 -10 9 -5 0
-10 -7 -10 -16z"/>
<path d="M255 2268 c28 -28 68 -67 89 -87 21 -20 59 -55 84 -78 44 -42 62 -52
62 -35 0 5 -54 63 -120 130 -82 84 -126 122 -142 122 -20 0 -16 -6 27 -52z"/>
<path d="M547 2313 c-10 -9 13 -33 30 -33 12 0 13 3 4 13 -6 8 -8 17 -4 20 3
4 0 7 -9 7 -8 0 -18 -3 -21 -7z"/>
<path d="M716 2306 c6 -15 47 -46 61 -46 3 0 -6 14 -22 30 -31 32 -48 39 -39
16z"/>
<path d="M800 2292 c0 -5 7 -15 15 -22 8 -7 15 -8 15 -2 0 5 -7 15 -15 22 -8
7 -15 8 -15 2z"/>
<path d="M785 2240 c-3 -5 -1 -10 4 -10 6 0 11 5 11 10 0 6 -2 10 -4 10 -3 0
-8 -4 -11 -10z"/>
<path d="M248 2153 c-18 -21 -13 -43 10 -43 15 -1 15 -2 0 -11 -31 -18 -19
-29 27 -27 25 0 45 5 45 10 0 4 -4 8 -10 8 -5 0 -9 6 -7 13 1 6 -6 11 -15 11
-10 -1 -15 2 -12 7 3 5 -1 18 -9 29 -13 19 -15 19 -29 3z"/>
<path d="M715 2120 c20 -22 31 -20 22 5 -4 8 -14 15 -23 15 -16 0 -16 -2 1
-20z"/>
<path d="M84 2078 c-3 -4 -4 -8 -2 -9 25 -6 35 -5 35 5 0 14 -25 17 -33 4z"/>
<path d="M765 2070 c3 -5 8 -10 11 -10 2 0 4 5 4 10 0 6 -5 10 -11 10 -5 0 -7
-4 -4 -10z"/>
<path d="M165 2060 c4 -6 11 -8 16 -5 14 9 11 15 -7 15 -8 0 -12 -5 -9 -10z"/>
<path d="M1231 1688 c-1 -14 -7 -16 -31 -12 -16 4 -42 1 -57 -5 -56 -23 -62
-98 -9 -112 32 -9 86 -1 86 12 0 5 7 6 16 2 9 -3 15 -16 14 -32 -4 -61 -3 -64
36 -58 54 9 135 77 92 77 -7 0 -20 -13 -29 -29 -12 -21 -26 -30 -50 -32 l-34
-4 3 65 c2 48 -3 75 -17 105 -11 22 -20 32 -20 23z"/>
<path d="M1090 1665 c-11 -13 -15 -13 -21 -3 -7 10 -9 9 -9 -4 0 -24 23 -23
45 2 10 11 13 20 8 20 -6 0 -16 -7 -23 -15z"/>
<path d="M1470 1631 c0 -5 5 -13 10 -16 6 -3 10 -2 10 4 0 5 -4 13 -10 16 -5
3 -10 2 -10 -4z"/>
<path d="M1521 1541 c-9 -6 -11 -14 -4 -26 9 -15 11 -14 15 9 3 14 5 26 4 26
0 0 -7 -4 -15 -9z"/>
<path d="M1450 1381 c-7 -17 -8 -36 -4 -43 6 -9 11 0 15 27 9 50 5 54 -11 16z"/>
<path d="M1410 1135 c0 -8 4 -15 10 -15 5 0 7 7 4 15 -4 8 -8 15 -10 15 -2 0
-4 -7 -4 -15z"/>
<path d="M1010 900 c-13 -8 -12 -10 3 -10 9 0 17 5 17 10 0 12 -1 12 -20 0z"/>
<path d="M936 518 c-3 -7 -7 -39 -10 -71 -2 -32 -10 -65 -17 -73 -9 -11 -8
-14 3 -14 19 0 52 111 36 121 -6 4 -8 16 -5 28 5 22 -1 30 -7 9z"/>
<path d="M945 280 c3 -5 11 -10 16 -10 6 0 7 5 4 10 -3 6 -11 10 -16 10 -6 0
-7 -4 -4 -10z"/>
<path d="M985 261 c-3 -5 -1 -12 5 -16 5 -3 10 1 10 9 0 18 -6 21 -15 7z"/>
</g>
</svg>
